<svg id="line" height="512" viewBox="0 0 64 64" width="512" xmlns="http://www.w3.org/2000/svg"><path d="m28.878 47.121a7.033 7.033 0 0 0 -9.933 0c-2.084 2.084-2.822 5.4-3.473 8.318-.541 2.431-1.053 4.727-2.179 5.854a1 1 0 0 0 1.414 1.414c1.126-1.126 3.422-1.638 5.854-2.18 2.921-.65 6.233-1.388 8.317-3.472a7.032 7.032 0 0 0 0-9.934z" fill="#c4a2fc"/><path d="m42.553 44.318 15.427-16.924-9.374-9.374-16.924 15.427z" fill="#c4a2fc"/><path d="m59.328 25.914 2-2.194a6.405 6.405 0 0 0 -9.048-9.049l-2.194 2z" fill="#c4a2fc"/><path d="m30.2 34.8-3.412 3.109a1 1 0 0 0 -.236.325l-2.209 4.859a8.97 8.97 0 0 1 8.565 8.564l4.859-2.208a.984.984 0 0 0 .325-.236l3.11-3.411z" fill="#c4a2fc"/><g fill="#151a6a"><path d="m35.748 23.773a5 5 0 1 1 5.988 3.762 5 5 0 0 1 -5.988-3.762zm4.208-4.037a3 3 0 1 0 3.592 2.257 3 3 0 0 0 -3.593-2.257z"/><path d="m30.338 16.988a5 5 0 1 1 6.674-2.335 5 5 0 0 1 -6.674 2.335zm-.538-5.806a3 3 0 1 0 4-1.4 3 3 0 0 0 -4 1.4z"/><path d="m14.986 14.653a5 5 0 1 1 6.674 2.335 5.007 5.007 0 0 1 -6.674-2.335zm1.8-.868a3 3 0 1 0 1.4-4.005 3 3 0 0 0 -1.4 4.005z"/><path d="m10.262 27.535a5 5 0 1 1 5.988-3.762 5 5 0 0 1 -5.988 3.762zm-1.811-5.543a3 3 0 1 0 3.592-2.256 3 3 0 0 0 -3.592 2.256z"/><path d="m10.362 38.469a5 5 0 1 1 7.027.791 5.009 5.009 0 0 1 -7.027-.791zm2.038-5.464a3 3 0 1 0 3.742 4.695 3 3 0 1 0 -3.741-4.69z"/><path d="m24.534 50.956a25 25 0 1 1 26.266-28.156 8.986 8.986 0 0 1 -8.941 10.2h-10.859a4 4 0 0 0 0 8 4.69 4.69 0 0 1 1.2 9.225 25.15 25.15 0 0 1 -7.666.731zm-14.559-41.456a23 23 0 0 0 14.673 39.46 23.246 23.246 0 0 0 7.054-.675 2.547 2.547 0 0 0 1.969-2.912 2.59 2.59 0 0 0 -2.671-2.373 6 6 0 1 1 0-12h10.86a6.986 6.986 0 0 0 6.955-7.945 23 23 0 0 0 -38.84-13.555z"/></g></svg>